<?xml version="1.0" encoding="UTF-8"?>
<svg xmlns="http://www.w3.org/2000/svg" viewBox="0 0 100 100" width="100px" height="100px">
<g id="surface4019423">
<path style=" stroke:none;fill-rule:nonzero;fill:rgb(94.117647%,37.64706%,3.529412%);fill-opacity:1;" d="M 50 4 C 24.632812 4 4 24.636719 4 50 C 4 75.363281 24.632812 96 50 96 C 75.367188 96 96 75.363281 96 50 C 96 24.636719 75.367188 4 50 4 Z M 50 14 C 58.519531 14 66.332031 16.96875 72.492188 21.910156 C 70.582031 23.183594 69.398438 25.390625 69.398438 27.800781 C 69.398438 31 71.199219 33.800781 73.199219 37 C 74.800781 39.601562 76.398438 43 76.398438 47.800781 C 76.398438 51.199219 75.398438 55.398438 73.398438 60.601562 L 69.398438 73.800781 L 55.199219 31.398438 C 57.601562 31.199219 59.800781 31 59.800781 31 C 61.800781 30.800781 61.601562 27.800781 59.601562 27.800781 C 59.601562 27.800781 59.601562 27.800781 59.398438 27.800781 C 59.398438 27.800781 53 28.398438 48.800781 28.398438 C 45 28.398438 38.398438 27.800781 38.398438 27.800781 C 38.398438 27.800781 38.398438 27.800781 38.199219 27.800781 C 36.199219 27.800781 36 31 38 31 C 38 31 40 31.199219 42.199219 31.398438 L 48.398438 48.199219 L 39.800781 74 L 25.398438 31.199219 C 27.800781 31 30 30.800781 30 30.800781 C 32 30.601562 31.800781 27.601562 29.800781 27.601562 C 29.800781 27.601562 29.800781 27.601562 29.601562 27.601562 C 29.601562 27.601562 25.296875 28.003906 21.429688 28.148438 C 28.007812 19.558594 38.335938 14 50 14 Z M 14 50 C 14 46.398438 14.542969 42.929688 15.523438 39.652344 L 30.371094 80.164062 C 20.523438 73.742188 14 62.644531 14 50 Z M 39.355469 84.398438 L 50 53.199219 L 61.371094 84.140625 C 57.792969 85.328125 53.976562 86 50 86 C 46.292969 86 42.71875 85.4375 39.355469 84.398438 Z M 70.609375 79.5 L 81.199219 48.800781 C 82.773438 44.800781 83.621094 41.316406 83.980469 38.191406 C 85.265625 41.894531 86 45.855469 86 50 C 86 62.222656 79.90625 72.992188 70.609375 79.5 Z M 70.609375 79.5 "/>
</g>
</svg>
